<svg width="20" height="20" viewBox="0 0 20 20" fill="none" xmlns="http://www.w3.org/2000/svg">
<path fill-rule="evenodd" clip-rule="evenodd" d="M11.5326 10.1179C11.5013 10.0866 11.4837 10.0442 11.4837 9.99989C11.4837 9.95562 11.5013 9.91316 11.5326 9.8819L17.7075 3.70749C18.0979 3.31648 18.0975 2.68299 17.7065 2.29254C17.3155 1.9021 16.682 1.90254 16.2916 2.29354L10.1174 8.46529C10.0862 8.49663 10.0437 8.51425 9.99944 8.51425C9.95517 8.51425 9.91272 8.49663 9.88145 8.46529L3.7073 2.29354C3.31687 1.90291 2.6837 1.90276 2.29308 2.29321C1.90247 2.68366 1.90232 3.31685 2.29275 3.70749L8.46624 9.8819C8.49758 9.91316 8.5152 9.95562 8.5152 9.99989C8.5152 10.0442 8.49758 10.0866 8.46624 10.1179L2.29275 16.293C2.04018 16.5457 1.94161 16.9139 2.03416 17.259C2.12671 17.6041 2.39632 17.8736 2.74143 17.966C3.08655 18.0584 3.45473 17.9596 3.7073 17.7069L9.88145 11.5318C9.91272 11.5005 9.95517 11.4829 9.99944 11.4829C10.0437 11.4829 10.0862 11.5005 10.1174 11.5318L16.2916 17.7069C16.682 18.0975 17.3152 18.0977 17.7058 17.7072C18.0964 17.3168 18.0966 16.6836 17.7061 16.293L11.5326 10.1179Z" fill="#A2A9B3"/>
</svg>
