<svg width="48" height="48" viewBox="0 0 48 48" fill="none" xmlns="http://www.w3.org/2000/svg">
<path fill-rule="evenodd" clip-rule="evenodd" d="M42.6722 28.6676L40.5279 27.4257C40.9894 25.1692 40.9913 22.8425 40.5334 20.5853L42.6804 19.3406C43.4013 18.9241 43.9275 18.2377 44.143 17.4325C44.3585 16.6273 44.2458 15.7693 43.8296 15.0474L41.4763 10.9636C40.6085 9.4621 38.6907 8.94826 37.1905 9.81526L35.0434 11.0572C33.3186 9.5275 31.305 8.35982 29.1218 7.62325V5.14485C29.1218 4.3084 28.7892 3.50641 28.1975 2.91624C27.6057 2.32608 26.8036 1.99637 25.9686 2.00003H21.2649C19.531 2.00003 18.1254 3.40801 18.1254 5.14485V7.63702C15.9483 8.36484 13.9393 9.52322 12.2176 11.0434L10.065 9.80149C8.56477 8.93449 6.64698 9.44833 5.77917 10.9498L3.42593 15.0337C3.00974 15.7556 2.897 16.6136 3.11252 17.4187C3.32804 18.2239 3.85416 18.9103 4.57506 19.3268L6.71936 20.5688C6.26023 22.8276 6.26023 25.1559 6.71936 27.4147L4.56956 28.6594C3.84866 29.0759 3.32254 29.7623 3.10702 30.5675C2.8915 31.3727 3.00424 32.2306 3.42043 32.9525L5.77642 37.0364C6.19168 37.7583 6.87642 38.2853 7.6798 38.5012C8.48317 38.7171 9.33928 38.6042 10.0595 38.1875L12.2066 36.9455C13.9329 38.4717 15.9448 39.6389 18.1254 40.3795V42.8579C18.1261 43.6924 18.458 44.4924 19.0479 45.0818C19.6377 45.6711 20.4373 46.0014 21.2704 46H25.9741C26.8077 46.0021 27.6079 45.6722 28.1984 45.0828C28.7889 44.4933 29.1211 43.6929 29.1218 42.8579V40.3657C31.3005 39.6356 33.3105 38.4744 35.0324 36.951L37.1822 38.1957C37.9029 38.6126 38.7594 38.7256 39.5632 38.5097C40.3671 38.2938 41.0523 37.7668 41.4681 37.0447L43.8213 32.9608C44.2375 32.2389 44.3503 31.3809 44.1347 30.5757C43.9192 29.7705 43.3931 29.0841 42.6722 28.6676ZM23.6236 32.2641C28.1785 32.2641 31.8709 28.5654 31.8709 24.0027C31.8709 19.4401 28.1785 15.7414 23.6236 15.7414C19.0688 15.7414 15.3763 19.4401 15.3763 24.0027C15.3763 28.5654 19.0688 32.2641 23.6236 32.2641Z" fill="#FFB901"/>
</svg>
