<svg width="48" height="48" viewBox="0 0 48 48" fill="none" xmlns="http://www.w3.org/2000/svg">
<path fill-rule="evenodd" clip-rule="evenodd" d="M28.3348 6.02834C27.4846 4.47283 25.8167 3.5 24 3.5C22.1834 3.5 20.5155 4.47283 19.6652 6.02834L2.55284 37.6283C1.76257 39.0874 1.82301 40.8418 2.71195 42.2466C3.60847 43.6456 5.18641 44.4975 6.88595 44.5H41.1141C42.8126 44.4969 44.3899 43.6467 45.2881 42.2499C46.177 40.8439 46.2374 39.0886 45.4472 37.6283L28.3348 6.02834ZM21.4594 18.2596C21.4594 16.901 22.5961 15.7996 23.9983 15.7996C25.4005 15.7996 26.5372 16.901 26.5372 18.2596V28.0998C26.5372 29.4584 25.4005 30.5598 23.9983 30.5598C22.5961 30.5598 21.4594 29.4584 21.4594 28.0998V18.2596ZM23.9983 38.7599C22.1287 38.7599 20.613 37.2914 20.613 35.4799C20.613 33.6683 22.1287 32.1998 23.9983 32.1998C25.8679 32.1998 27.3835 33.6683 27.3835 35.4799C27.3835 37.2914 25.8679 38.7599 23.9983 38.7599Z" fill="#FFB901"/>
</svg>
