<svg xmlns="http://www.w3.org/2000/svg" width="20" height="20" viewBox="0 0 20 20">
    <path fill="#fff" d="M20 8.333a2.212 2.212 0 0 0-1.111-1.914V1.111A1.122 1.122 0 0 0 17.778 0a1.109 1.109 0 0 0-.694.244l-2.952 2.362a8.428 8.428 0 0 1-5.243 1.838H2.222A2.222 2.222 0 0 0 0 6.667V10a2.222 2.222 0 0 0 2.222 2.222h1.17a8.438 8.438 0 0 0-.076 1.111 8.8 8.8 0 0 0 .884 3.852 1.09 1.09 0 0 0 .986.592h2.583a1.1 1.1 0 0 0 .9-1.756 4.422 4.422 0 0 1-.908-2.689 4.2 4.2 0 0 1 .153-1.111h.975a8.426 8.426 0 0 1 5.242 1.839l2.952 2.362a1.111 1.111 0 0 0 1.8-.867v-5.307A2.213 2.213 0 0 0 20 8.333zm-3.333 4.91l-1.148-.918A10.653 10.653 0 0 0 8.889 10V6.667a10.653 10.653 0 0 0 6.63-2.326l1.148-.918z" transform="translate(0 1)"/>
    <path fill="none" d="M0 0H20V20H0z"/>
</svg>
