<svg width="19" height="18" viewBox="0 0 19 18" fill="none" xmlns="http://www.w3.org/2000/svg">
<path fill-rule="evenodd" clip-rule="evenodd" d="M0.306641 9C0.306641 4.02944 4.28694 0 9.19688 0C14.1046 0.00537364 18.0818 4.03166 18.0871 9C18.0871 13.9706 14.1068 18 9.19688 18C4.28694 18 0.306641 13.9706 0.306641 9ZM9.44143 3.375C10.1234 3.375 10.6762 3.93464 10.6762 4.625C10.6762 5.31536 10.1234 5.875 9.44143 5.875C8.75949 5.875 8.20667 5.31536 8.20667 4.625C8.20667 3.93464 8.75949 3.375 9.44143 3.375ZM10.5564 14.0489C10.194 14.2365 9.90555 14.3788 9.6892 14.4773C9.47344 14.5758 9.22251 14.625 8.93702 14.625C8.49835 14.625 8.15683 14.4843 7.91365 14.2037C7.67047 13.9231 7.54948 13.5674 7.54948 13.1352C7.54948 12.9671 7.55842 12.7951 7.5763 12.62C7.59478 12.445 7.62398 12.248 7.66392 12.0268L8.11749 9.92568C8.15742 9.72401 8.19199 9.5325 8.21941 9.35429C8.24683 9.17451 8.25994 9.00957 8.25994 8.8595C8.25994 8.59217 8.21762 8.40457 8.13358 8.29905C8.04835 8.19353 7.88802 8.14194 7.64902 8.14194C7.5322 8.14194 7.4118 8.1646 7.28842 8.21229C7.16624 8.26153 7.06015 8.30608 6.97313 8.34986L7.09293 7.70264C7.38975 7.54397 7.67405 7.40796 7.94524 7.2954C8.21643 7.18128 8.47272 7.125 8.71411 7.125C9.1498 7.125 9.48595 7.26413 9.72257 7.53928C9.958 7.8152 10.0766 8.17398 10.0766 8.61484C10.0766 8.70629 10.0683 8.86731 10.0522 9.09712C10.0361 9.32771 10.0057 9.53798 9.96158 9.73104L9.51039 11.8259C9.47344 11.9939 9.44065 12.1862 9.41085 12.4012C9.38165 12.6161 9.36734 12.7803 9.36734 12.8905C9.36734 13.1688 9.41443 13.3587 9.50979 13.4595C9.60396 13.5604 9.76906 13.6112 10.0027 13.6112C10.113 13.6112 10.2363 13.5854 10.3758 13.5354C10.5141 13.4853 10.6142 13.4408 10.6774 13.4025L10.5564 14.0489Z" fill="white"/>
</svg>
