<svg width="26" height="26" viewBox="0 0 26 26" fill="none" xmlns="http://www.w3.org/2000/svg">
<circle cx="13" cy="13" r="13" fill="white"/>
<g clip-path="url(#clip0_1329_40098)">
<path d="M11.8751 15.0277V15.3744H14.3711V15.0277C14.3711 14.2131 14.7698 13.7971 15.6711 13.0864C16.4165 12.5317 16.8498 12.1157 17.1791 11.3531C17.3351 10.9891 17.4218 10.5384 17.4218 10.0184C17.4218 8.51041 16.6418 7.33175 15.3938 6.70775C14.7698 6.39575 14.0591 6.23975 13.2791 6.23975C11.7538 6.23975 10.4538 6.82908 9.70847 7.97308C9.32714 8.54508 9.13647 9.23841 9.11914 10.0357H11.5978C11.6151 9.08241 12.3605 8.51041 13.2618 8.51041C14.1805 8.51041 14.8565 9.11708 14.8565 10.0357C14.8565 10.8157 14.4751 11.2144 13.6431 11.8384C12.8978 12.3931 12.4645 12.7571 12.1351 13.5544C11.9618 13.9531 11.8751 14.4557 11.8751 15.0277ZM11.7885 16.4491V19.0664H14.4405V16.4491H11.7885Z" fill="#272829"/>
</g>
<defs>
<clipPath id="clip0_1329_40098">
<rect width="9.53333" height="13" fill="white" transform="translate(8.66797 6.06641)"/>
</clipPath>
</defs>
</svg>
