<svg width="16" height="16" viewBox="0 0 16 16" fill="none" xmlns="http://www.w3.org/2000/svg">
<path fill-rule="evenodd" clip-rule="evenodd" d="M9.275 4.41204C7.7908 3.95013 6.16449 4.3324 5.06411 5.40183C3.9671 6.46883 3.57427 8.0383 4.04505 9.4733C4.057 9.50976 4.08592 9.53869 4.12316 9.55145C4.16041 9.56421 4.20167 9.55932 4.23464 9.53824L4.90982 9.10805C5.08016 8.99955 5.3012 9.00107 5.46993 9.11189C5.63867 9.22271 5.72188 9.42103 5.6808 9.61442L5.21992 11.7659C5.17203 11.9931 4.96573 12.1563 4.72627 12.1565C4.69239 12.1564 4.6586 12.153 4.62543 12.1463L2.40325 11.7029C2.20314 11.6633 2.04747 11.5106 2.00903 11.3164C1.97059 11.1221 2.05697 10.9246 2.22778 10.8161L2.93371 10.3659C2.98353 10.3343 3.00337 10.273 2.98111 10.2194C2.19215 8.33166 2.60179 6.17234 4.0321 4.67939C5.4624 3.18645 7.65527 2.62927 9.65822 3.24988C9.8726 3.31617 10.0342 3.48818 10.0821 3.70111C10.13 3.91405 10.0569 4.13555 9.89046 4.28219C9.72399 4.42884 9.48938 4.47833 9.275 4.41204ZM13.6074 4.84419C13.8061 4.88817 13.9579 5.04367 13.9921 5.23825C14.0282 5.43402 13.9381 5.63141 13.7642 5.73729L13.0855 6.1504C13.0346 6.18117 13.0134 6.24267 13.0351 6.29689C13.813 8.17554 13.4062 10.3199 11.9897 11.8082C10.5731 13.2965 8.39916 13.8635 6.40236 13.2655C6.18174 13.2056 6.01203 13.0345 5.95913 12.8186C5.90623 12.6027 5.97848 12.3761 6.14781 12.2266C6.31714 12.0771 6.5569 12.0284 6.77398 12.0994C8.25762 12.5439 9.87338 12.1509 10.9641 11.0804C12.0549 10.0098 12.4389 8.43998 11.9601 7.00932C11.948 6.97334 11.9196 6.9447 11.8829 6.93168C11.8462 6.91919 11.8055 6.92407 11.773 6.94487L11.0454 7.38727C10.8727 7.49233 10.6517 7.48633 10.4854 7.37208C10.3191 7.25783 10.2402 7.05781 10.2855 6.86527L10.7897 4.72309C10.8195 4.5966 10.9001 4.48679 11.0136 4.41789C11.1271 4.349 11.2643 4.32669 11.3948 4.35588L13.6074 4.84419Z" fill="white"/>
</svg>
