<svg width="22" height="20" viewBox="0 0 22 20" fill="none" xmlns="http://www.w3.org/2000/svg">
<path d="M3.229 19.2545C2.37364 19.254 1.5534 18.9143 0.948101 18.31C0.342804 17.7056 0.00185298 16.8859 0 16.0305V14.9845H0.528C1.1769 14.9842 1.80315 14.7459 2.28819 14.3149C2.77324 13.8838 3.08341 13.2899 3.16 12.6455C3.20597 12.4333 3.20597 12.2137 3.16 12.0015C3.083 11.3564 2.77305 10.7616 2.28839 10.3288C1.80373 9.8961 1.17772 9.65525 0.528 9.65154H0V8.62254C0.00131568 7.76592 0.341713 6.94465 0.946783 6.33827C1.55185 5.73189 2.37238 5.38971 3.229 5.38654H18.1C18.9561 5.39154 19.7757 5.73427 20.3805 6.34023C20.9854 6.94619 21.3266 7.76639 21.33 8.62254V9.65154H20.8C20.1503 9.65624 19.5245 9.89686 19.039 10.3286C18.5535 10.7604 18.2415 11.3539 18.161 11.9985C18.1268 12.2118 18.1268 12.4292 18.161 12.6425C18.2398 13.2875 18.5514 13.8815 19.0374 14.3128C19.5234 14.7441 20.1502 14.983 20.8 14.9845H21.329V16.0305C21.325 16.8854 20.9833 17.7041 20.3782 18.308C19.7732 18.9119 18.9539 19.2522 18.099 19.2545H3.229ZM8.621 16.4985C8.58348 16.878 8.69461 17.2573 8.931 17.5565C9.05472 17.6954 9.20499 17.8081 9.37296 17.888C9.54093 17.9678 9.7232 18.0133 9.909 18.0215L15.23 18.4815C15.265 18.4815 15.3 18.4875 15.345 18.4875C15.5225 18.4932 15.6992 18.4629 15.8646 18.3983C16.03 18.3338 16.1806 18.2363 16.3072 18.1119C16.4339 17.9875 16.534 17.8387 16.6015 17.6745C16.669 17.5103 16.7025 17.3341 16.7 17.1565L17.033 13.3925C17.068 12.8865 17.112 12.3815 17.159 11.8755C17.1824 11.702 17.1703 11.5255 17.1233 11.3568C17.0764 11.1881 16.9957 11.0307 16.8861 10.8942C16.7765 10.7577 16.6403 10.6448 16.4857 10.5625C16.3312 10.4802 16.1615 10.4302 15.987 10.4155C15.919 10.4035 15.837 10.3985 15.768 10.3925L14.32 10.2665L12.687 10.1285L12.675 10.0545C12.653 9.98554 12.631 9.94554 12.619 9.90454C12.263 8.87054 11.883 7.84154 11.492 6.81254C11.4107 6.55254 11.2487 6.32518 11.0296 6.16337C10.8104 6.00156 10.5454 5.91371 10.273 5.91254C10.0967 5.91318 9.92174 5.94431 9.756 6.00454C8.078 6.61388 6.39967 7.22488 4.721 7.83754C4.54501 7.89131 4.38236 7.98166 4.24373 8.10268C4.10509 8.2237 3.9936 8.37265 3.91655 8.53977C3.83951 8.70689 3.79865 8.88841 3.79666 9.07242C3.79467 9.25644 3.83159 9.43879 3.905 9.60754C4.514 11.2855 5.124 12.9525 5.733 14.6255C5.80903 14.8907 5.96887 15.1241 6.18861 15.2908C6.40834 15.4576 6.67617 15.5487 6.952 15.5505C7.13598 15.5515 7.31872 15.5204 7.492 15.4585C7.733 15.3665 7.963 15.2805 8.216 15.1935C8.388 15.1245 8.572 15.0615 8.756 14.9865C8.713 15.4985 8.667 15.9985 8.621 16.4985ZM15.264 17.6885C13.5973 17.5332 11.9307 17.3879 10.264 17.2525C10.172 17.2345 10.064 17.2345 9.976 17.2225C9.89337 17.2282 9.81056 17.2144 9.73425 17.1822C9.65794 17.15 9.59026 17.1003 9.53666 17.0371C9.48305 16.974 9.44502 16.8992 9.42563 16.8186C9.40623 16.7381 9.40602 16.6542 9.425 16.5735C9.494 15.7345 9.587 14.9015 9.643 14.0625C9.724 13.1625 9.816 12.2695 9.886 11.3735C9.932 10.8625 10.115 10.7015 10.62 10.7525C12.287 10.9025 13.965 11.0455 15.644 11.1895L15.873 11.2075C15.9463 11.2107 16.0181 11.2292 16.0838 11.2618C16.1495 11.2945 16.2075 11.3407 16.2542 11.3972C16.3009 11.4538 16.3351 11.5196 16.3547 11.5903C16.3744 11.661 16.3789 11.735 16.368 11.8075C16.309 12.4795 16.241 13.1575 16.183 13.8305C16.09 14.9225 15.988 16.0025 15.895 17.0885C15.861 17.5085 15.701 17.6885 15.332 17.6885H15.264ZM10.873 14.8615C10.8209 14.8673 10.7703 14.8829 10.724 14.9075L10.656 14.9365C10.633 14.9485 10.597 14.9765 10.574 14.9885C10.551 15.0005 10.551 15.0055 10.54 15.0115C10.494 15.0405 10.46 15.0805 10.414 15.1115C10.379 15.1523 10.3482 15.1966 10.322 15.2435C10.2148 15.3922 10.158 15.5713 10.16 15.7545V15.7605C10.1622 15.8073 10.1699 15.8536 10.183 15.8985C10.1902 15.9417 10.2019 15.9839 10.218 16.0245C10.229 16.0655 10.252 16.1105 10.264 16.1455C10.3245 16.2697 10.4153 16.3767 10.528 16.4565L10.597 16.5025C10.6697 16.5545 10.7519 16.5916 10.839 16.6115C10.8692 16.6221 10.9004 16.6298 10.932 16.6345C10.9848 16.6397 11.0379 16.6417 11.091 16.6405V16.6405C11.2304 16.6387 11.3674 16.6045 11.4913 16.5406C11.6152 16.4768 11.7226 16.385 11.805 16.2725C11.828 16.2555 11.828 16.2275 11.851 16.1985C11.875 16.1683 11.8942 16.1346 11.908 16.0985C11.9283 16.0481 11.944 15.9958 11.955 15.9425V15.9135C11.9678 15.857 11.9755 15.7994 11.978 15.7415V15.7355C11.978 15.6165 11.9544 15.4987 11.9085 15.3888C11.8627 15.279 11.7955 15.1793 11.7109 15.0956C11.6262 15.0119 11.5258 14.9458 11.4155 14.9012C11.3051 14.8565 11.187 14.8342 11.068 14.8355H11.047C10.9888 14.8373 10.9308 14.8446 10.874 14.8575L10.873 14.8615ZM11.988 14.2005C11.989 14.3254 12.0085 14.4494 12.046 14.5685C12.0974 14.6743 12.1675 14.7698 12.253 14.8505C12.3329 14.9349 12.429 15.0023 12.5355 15.0487C12.642 15.0951 12.7568 15.1195 12.873 15.1205H12.884C12.9384 15.12 12.9927 15.1143 13.046 15.1035C13.069 15.0995 13.0918 15.0938 13.114 15.0865C13.1419 15.0866 13.1695 15.0808 13.195 15.0695C13.229 15.0525 13.265 15.0405 13.288 15.0285C13.311 15.0165 13.345 14.9935 13.378 14.9765L13.448 14.9245C13.483 14.9075 13.494 14.8785 13.528 14.8555C13.5524 14.834 13.5755 14.811 13.597 14.7865V14.7755C13.6131 14.7479 13.6329 14.7227 13.656 14.7005C13.679 14.6665 13.69 14.6375 13.713 14.6005C13.7164 14.5749 13.7238 14.5499 13.735 14.5265C13.746 14.4805 13.769 14.4405 13.782 14.3935C13.7956 14.3331 13.8033 14.2715 13.805 14.2095C13.8029 14.146 13.7952 14.0828 13.782 14.0205C13.758 13.9685 13.746 13.9115 13.723 13.8595C13.7043 13.8043 13.6777 13.7521 13.644 13.7045C13.5107 13.5119 13.3097 13.3765 13.081 13.3255C13.0245 13.3113 12.9662 13.3056 12.908 13.3085C12.7891 13.306 12.6708 13.3271 12.5601 13.3706C12.4493 13.4141 12.3483 13.4791 12.2628 13.5618C12.1774 13.6446 12.1092 13.7435 12.0622 13.8528C12.0152 13.9621 11.9903 14.0796 11.989 14.1985L11.988 14.2005ZM14.356 11.8505C14.3271 11.8597 14.2998 11.8732 14.275 11.8905C14.2549 11.9004 14.2358 11.9121 14.218 11.9255L14.206 11.9315C14.0162 12.0573 13.8812 12.2502 13.828 12.4715V12.5285C13.8143 12.5754 13.8062 12.6238 13.804 12.6725V12.6955C13.8058 12.7556 13.8138 12.8152 13.828 12.8735C13.8353 12.9321 13.8543 12.9885 13.884 13.0395C13.9062 13.0937 13.9329 13.1459 13.964 13.1955C14.0001 13.2417 14.0388 13.2858 14.08 13.3275C14.2475 13.4958 14.4746 13.591 14.712 13.5925C14.83 13.5911 14.9466 13.5677 15.056 13.5235C15.1649 13.4777 15.263 13.4096 15.344 13.3235C15.5119 13.1578 15.6075 12.9325 15.61 12.6965V12.6735C15.6148 12.5576 15.5947 12.442 15.551 12.3345C15.5392 12.3236 15.5311 12.3093 15.528 12.2935C15.505 12.2535 15.483 12.2075 15.46 12.1735C15.4265 12.1234 15.3876 12.0772 15.344 12.0355C15.2889 11.9738 15.2228 11.9229 15.149 11.8855C15.1165 11.8684 15.0831 11.853 15.049 11.8395C15.0194 11.8191 14.9849 11.807 14.949 11.8045C14.9248 11.7906 14.8968 11.7847 14.869 11.7875C14.8202 11.7757 14.7702 11.77 14.72 11.7705H14.69C14.5746 11.7722 14.4608 11.7981 14.356 11.8465V11.8505ZM7.6 13.7985C7.47817 13.7953 7.35817 13.768 7.24692 13.7183C7.13566 13.6685 7.03533 13.5973 6.9517 13.5086C6.86806 13.42 6.80277 13.3157 6.75958 13.2017C6.71638 13.0877 6.69614 12.9664 6.7 12.8445C6.71642 12.6134 6.81929 12.3969 6.98814 12.2381C7.15698 12.0794 7.37942 11.9901 7.61116 11.9879C7.84289 11.9858 8.06694 12.071 8.2387 12.2266C8.41045 12.3822 8.51731 12.5967 8.538 12.8275C8.53623 12.901 8.52854 12.9743 8.515 13.0465C8.50561 13.1037 8.49019 13.1597 8.469 13.2135C8.44527 13.269 8.41434 13.3211 8.377 13.3685C8.36422 13.4102 8.34077 13.4478 8.309 13.4775L8.263 13.5235C8.263 13.5345 8.263 13.5345 8.25 13.5345C8.21964 13.5665 8.18614 13.5953 8.15 13.6205C8.1065 13.6516 8.06031 13.6787 8.012 13.7015C7.988 13.7125 7.954 13.7245 7.931 13.7355C7.89025 13.7525 7.84809 13.7659 7.805 13.7755C7.782 13.7815 7.782 13.7815 7.782 13.7755C7.782 13.7695 7.759 13.7865 7.759 13.7815C7.7215 13.7918 7.68288 13.7976 7.644 13.7985H7.6ZM6.471 10.6395C6.35213 10.6395 6.23444 10.616 6.12473 10.5703C6.01501 10.5245 5.91544 10.4575 5.83176 10.3731C5.74808 10.2887 5.68195 10.1885 5.6372 10.0784C5.59244 9.9683 5.56994 9.8504 5.571 9.73154V9.58154C5.583 9.53554 5.594 9.50154 5.606 9.46654C5.60731 9.43044 5.61951 9.39558 5.641 9.36654C5.68299 9.26448 5.74563 9.17222 5.825 9.09554C5.825 9.08954 5.825 9.08454 5.836 9.07854C5.87032 9.05479 5.90245 9.02802 5.932 8.99854C5.94604 8.98852 5.96156 8.98076 5.978 8.97554C6.01913 8.94307 6.06499 8.9171 6.114 8.89854C6.22283 8.84965 6.34069 8.8241 6.46 8.82354H6.471C6.5883 8.82236 6.70464 8.84467 6.81318 8.88915C6.92173 8.93363 7.02027 8.99938 7.103 9.08254C7.1861 9.16374 7.25385 9.25927 7.303 9.36454C7.35264 9.47474 7.37984 9.59372 7.383 9.71454V9.72554C7.38685 9.78032 7.37866 9.83527 7.359 9.88654C7.35728 9.92097 7.34949 9.95482 7.336 9.98654C7.32591 10.0265 7.31114 10.0651 7.292 10.1015C7.27598 10.147 7.25267 10.1896 7.223 10.2275C7.199 10.2685 7.164 10.3025 7.13 10.3485C7.13 10.3605 7.118 10.3665 7.107 10.3715C7.07279 10.4093 7.03418 10.4429 6.992 10.4715C6.992 10.4715 6.981 10.4715 6.981 10.4775C6.93198 10.5147 6.87727 10.5438 6.819 10.5635C6.76768 10.5872 6.71359 10.6044 6.658 10.6145C6.6021 10.6306 6.54415 10.6384 6.486 10.6375L6.471 10.6395ZM9.609 9.47854C9.36853 9.47643 9.13872 9.37901 8.96999 9.20766C8.80126 9.0363 8.7074 8.80502 8.709 8.56454C8.71563 8.32674 8.81353 8.10061 8.9824 7.93304C9.15127 7.76548 9.37815 7.66933 9.616 7.66454C9.73637 7.66413 9.85562 7.68773 9.96675 7.73397C10.0779 7.7802 10.1787 7.84815 10.2632 7.93382C10.3478 8.01949 10.4144 8.12117 10.4592 8.23291C10.504 8.34464 10.526 8.46419 10.524 8.58454V8.59854C10.5201 8.83463 10.4235 9.05971 10.2552 9.22526C10.0868 9.39082 9.86012 9.48357 9.624 9.48354L9.609 9.47854ZM18.1 4.59854H5.2L17.264 0.098542C17.7023 -0.0543454 18.1831 -0.0285289 18.6025 0.170406C19.0219 0.369341 19.3461 0.725397 19.505 1.16154L21.16 6.05254C20.7874 5.60104 20.3203 5.23682 19.7915 4.98558C19.2628 4.73435 18.6854 4.60223 18.1 4.59854V4.59854Z" fill="#535353"/>
</svg>
